<mxfile host="app.diagrams.net" modified="2021-07-23T08:44:07.799Z" agent="5.0 (Windows NT 10.0; WOW64) AppleWebKit/537.36 (KHTML, like Gecko) Chrome/83.0.4103.61 Safari/537.36" etag="DxPoi52q668QoqWRLbQS" version="14.9.1" type="github">
  <diagram id="7fh01Je4JOeylW95c4aD" name="第 1 页">
    <mxGraphModel dx="608" dy="-647" grid="1" gridSize="10" guides="1" tooltips="1" connect="1" arrows="1" fold="1" page="0" pageScale="1" pageWidth="827" pageHeight="1169" math="0" shadow="0">
      <root>
        <mxCell id="0" />
        <mxCell id="1" parent="0" />
        <mxCell id="NoHZ_IP1no9aS0AMYuWi-32" value="&lt;font color=&quot;#143642&quot;&gt;&lt;b&gt;删除元素11，记为DE&lt;/b&gt;&lt;/font&gt;" style="shape=callout;whiteSpace=wrap;html=1;perimeter=calloutPerimeter;rounded=1;position2=1;" vertex="1" parent="1">
          <mxGeometry x="780" y="1400" width="120" height="80" as="geometry" />
        </mxCell>
        <mxCell id="NoHZ_IP1no9aS0AMYuWi-33" value="" style="html=1;shadow=0;dashed=0;align=center;verticalAlign=middle;shape=mxgraph.arrows2.arrow;dy=0.6;dx=40;notch=0;rounded=1;glass=0;sketch=0;fontColor=#143642;strokeColor=#0F8B8D;fillColor=#FAE5C7;" vertex="1" parent="1">
          <mxGeometry x="1130" y="1590" width="70" height="20" as="geometry" />
        </mxCell>
        <mxCell id="NoHZ_IP1no9aS0AMYuWi-65" value="" style="html=1;shadow=0;dashed=0;align=center;verticalAlign=middle;shape=mxgraph.arrows2.arrow;dy=0.6;dx=40;notch=0;rounded=1;glass=0;sketch=0;fontColor=#143642;strokeColor=#0F8B8D;fillColor=#FAE5C7;" vertex="1" parent="1">
          <mxGeometry x="1540" y="1590" width="70" height="20" as="geometry" />
        </mxCell>
        <mxCell id="NoHZ_IP1no9aS0AMYuWi-98" value="&lt;font color=&quot;#143642&quot;&gt;&lt;b&gt;S的key、value&lt;br&gt;赋值给DE&lt;/b&gt;&lt;/font&gt;" style="shape=callout;whiteSpace=wrap;html=1;perimeter=calloutPerimeter;rounded=1;position2=0.19;" vertex="1" parent="1">
          <mxGeometry x="1780" y="1400" width="140" height="80" as="geometry" />
        </mxCell>
        <mxCell id="NoHZ_IP1no9aS0AMYuWi-99" value="&lt;font color=&quot;#143642&quot;&gt;&lt;b&gt;S为红色，无需修复树的结构&lt;/b&gt;&lt;/font&gt;" style="shape=callout;whiteSpace=wrap;html=1;perimeter=calloutPerimeter;rounded=1;position2=0.73;" vertex="1" parent="1">
          <mxGeometry x="1725" y="1635" width="110" height="80" as="geometry" />
        </mxCell>
        <mxCell id="NoHZ_IP1no9aS0AMYuWi-164" value="" style="html=1;shadow=0;dashed=0;align=center;verticalAlign=middle;shape=mxgraph.arrows2.arrow;dy=0.6;dx=40;notch=0;rounded=1;glass=0;sketch=0;fontColor=#143642;strokeColor=#0F8B8D;fillColor=#FAE5C7;direction=south;" vertex="1" parent="1">
          <mxGeometry x="1770" y="1800" width="20" height="70" as="geometry" />
        </mxCell>
        <mxCell id="NoHZ_IP1no9aS0AMYuWi-228" value="&lt;font color=&quot;#143642&quot;&gt;&lt;b&gt;断开S和13的引用关系&lt;br&gt;&lt;/b&gt;&lt;/font&gt;" style="shape=callout;whiteSpace=wrap;html=1;perimeter=calloutPerimeter;rounded=1;position2=0.58;direction=west;" vertex="1" parent="1">
          <mxGeometry x="1770" y="2170" width="120" height="70" as="geometry" />
        </mxCell>
        <mxCell id="NoHZ_IP1no9aS0AMYuWi-229" value="" style="html=1;shadow=0;dashed=0;align=center;verticalAlign=middle;shape=mxgraph.arrows2.arrow;dy=0.6;dx=40;notch=0;rounded=1;glass=0;sketch=0;fontColor=#143642;strokeColor=#0F8B8D;fillColor=#FAE5C7;direction=west;" vertex="1" parent="1">
          <mxGeometry x="1460" y="2030" width="70" height="20" as="geometry" />
        </mxCell>
        <mxCell id="NoHZ_IP1no9aS0AMYuWi-258" value="7" style="ellipse;whiteSpace=wrap;html=1;aspect=fixed;fillColor=#f8cecc;strokeColor=#b85450;gradientColor=#ea6b66;" vertex="1" parent="1">
          <mxGeometry x="800" y="1720" width="40" height="40" as="geometry" />
        </mxCell>
        <mxCell id="NoHZ_IP1no9aS0AMYuWi-259" value="3" style="ellipse;whiteSpace=wrap;html=1;aspect=fixed;fillColor=#f5f5f5;strokeColor=#666666;gradientColor=#b3b3b3;" vertex="1" parent="1">
          <mxGeometry x="760" y="1640" width="40" height="40" as="geometry" />
        </mxCell>
        <mxCell id="NoHZ_IP1no9aS0AMYuWi-260" value="8" style="ellipse;whiteSpace=wrap;html=1;aspect=fixed;fillColor=#f5f5f5;strokeColor=#666666;gradientColor=#b3b3b3;" vertex="1" parent="1">
          <mxGeometry x="840" y="1640" width="40" height="40" as="geometry" />
        </mxCell>
        <mxCell id="NoHZ_IP1no9aS0AMYuWi-261" style="edgeStyle=none;rounded=1;sketch=0;orthogonalLoop=1;jettySize=auto;html=1;exitX=0.5;exitY=1;exitDx=0;exitDy=0;entryX=0.5;entryY=0;entryDx=0;entryDy=0;fontColor=#143642;strokeColor=#A8201A;fillColor=#FAE5C7;" edge="1" parent="1" source="NoHZ_IP1no9aS0AMYuWi-263" target="NoHZ_IP1no9aS0AMYuWi-259">
          <mxGeometry x="720" y="1480" as="geometry" />
        </mxCell>
        <mxCell id="NoHZ_IP1no9aS0AMYuWi-262" style="edgeStyle=none;rounded=1;sketch=0;orthogonalLoop=1;jettySize=auto;html=1;exitX=0.5;exitY=1;exitDx=0;exitDy=0;entryX=0.5;entryY=0;entryDx=0;entryDy=0;fontColor=#143642;strokeColor=#A8201A;fillColor=#FAE5C7;" edge="1" parent="1" source="NoHZ_IP1no9aS0AMYuWi-263" target="NoHZ_IP1no9aS0AMYuWi-260">
          <mxGeometry x="720" y="1480" as="geometry" />
        </mxCell>
        <mxCell id="NoHZ_IP1no9aS0AMYuWi-263" value="5" style="ellipse;whiteSpace=wrap;html=1;aspect=fixed;fillColor=#f8cecc;strokeColor=#b85450;gradientColor=#ea6b66;" vertex="1" parent="1">
          <mxGeometry x="800" y="1560" width="40" height="40" as="geometry" />
        </mxCell>
        <mxCell id="NoHZ_IP1no9aS0AMYuWi-264" style="rounded=1;sketch=0;orthogonalLoop=1;jettySize=auto;html=1;exitX=0.5;exitY=1;exitDx=0;exitDy=0;entryX=0.5;entryY=0;entryDx=0;entryDy=0;fontColor=#143642;strokeColor=#A8201A;fillColor=#FAE5C7;" edge="1" parent="1" source="NoHZ_IP1no9aS0AMYuWi-272" target="NoHZ_IP1no9aS0AMYuWi-263">
          <mxGeometry x="840" y="1480" as="geometry">
            <mxPoint x="1020" y="1520" as="sourcePoint" />
          </mxGeometry>
        </mxCell>
        <mxCell id="NoHZ_IP1no9aS0AMYuWi-265" value="16" style="ellipse;whiteSpace=wrap;html=1;aspect=fixed;fillColor=#f5f5f5;strokeColor=#666666;gradientColor=#b3b3b3;" vertex="1" parent="1">
          <mxGeometry x="1080" y="1640" width="40" height="40" as="geometry" />
        </mxCell>
        <mxCell id="NoHZ_IP1no9aS0AMYuWi-266" style="edgeStyle=none;rounded=0;orthogonalLoop=1;jettySize=auto;html=1;exitX=0.5;exitY=1;exitDx=0;exitDy=0;entryX=0.5;entryY=0;entryDx=0;entryDy=0;gradientColor=#ea6b66;fillColor=#f8cecc;strokeColor=#b85450;" edge="1" parent="1" source="NoHZ_IP1no9aS0AMYuWi-267" target="NoHZ_IP1no9aS0AMYuWi-279">
          <mxGeometry relative="1" as="geometry" />
        </mxCell>
        <mxCell id="NoHZ_IP1no9aS0AMYuWi-287" style="rounded=0;orthogonalLoop=1;jettySize=auto;html=1;exitX=0.5;exitY=1;exitDx=0;exitDy=0;entryX=0.5;entryY=0;entryDx=0;entryDy=0;gradientColor=#ea6b66;fillColor=#f8cecc;strokeColor=#b85450;" edge="1" parent="1" source="NoHZ_IP1no9aS0AMYuWi-267" target="NoHZ_IP1no9aS0AMYuWi-286">
          <mxGeometry relative="1" as="geometry" />
        </mxCell>
        <mxCell id="NoHZ_IP1no9aS0AMYuWi-267" value="13" style="ellipse;whiteSpace=wrap;html=1;aspect=fixed;gradientColor=#b3b3b3;fillColor=#f5f5f5;strokeColor=#666666;" vertex="1" parent="1">
          <mxGeometry x="1000" y="1640" width="40" height="40" as="geometry" />
        </mxCell>
        <mxCell id="NoHZ_IP1no9aS0AMYuWi-268" value="5" style="ellipse;whiteSpace=wrap;html=1;aspect=fixed;fillColor=#f8cecc;strokeColor=#b85450;gradientColor=#ea6b66;" vertex="1" parent="1">
          <mxGeometry x="800" y="1560" width="40" height="40" as="geometry" />
        </mxCell>
        <mxCell id="NoHZ_IP1no9aS0AMYuWi-269" value="3" style="ellipse;whiteSpace=wrap;html=1;aspect=fixed;fillColor=#f5f5f5;strokeColor=#666666;gradientColor=#b3b3b3;" vertex="1" parent="1">
          <mxGeometry x="760" y="1640" width="40" height="40" as="geometry" />
        </mxCell>
        <mxCell id="NoHZ_IP1no9aS0AMYuWi-270" value="8" style="ellipse;whiteSpace=wrap;html=1;aspect=fixed;fillColor=#f5f5f5;strokeColor=#666666;gradientColor=#b3b3b3;" vertex="1" parent="1">
          <mxGeometry x="840" y="1640" width="40" height="40" as="geometry" />
        </mxCell>
        <mxCell id="NoHZ_IP1no9aS0AMYuWi-271" style="edgeStyle=none;rounded=0;orthogonalLoop=1;jettySize=auto;html=1;exitX=0.5;exitY=1;exitDx=0;exitDy=0;entryX=0.5;entryY=0;entryDx=0;entryDy=0;gradientColor=#ea6b66;fillColor=#f8cecc;strokeColor=#b85450;" edge="1" parent="1" source="NoHZ_IP1no9aS0AMYuWi-272" target="NoHZ_IP1no9aS0AMYuWi-282">
          <mxGeometry relative="1" as="geometry" />
        </mxCell>
        <mxCell id="NoHZ_IP1no9aS0AMYuWi-272" value="11" style="ellipse;whiteSpace=wrap;html=1;aspect=fixed;fillColor=#f5f5f5;strokeColor=#666666;gradientColor=#b3b3b3;" vertex="1" parent="1">
          <mxGeometry x="920" y="1480" width="40" height="40" as="geometry" />
        </mxCell>
        <mxCell id="NoHZ_IP1no9aS0AMYuWi-273" value="5" style="ellipse;whiteSpace=wrap;html=1;aspect=fixed;fillColor=#f8cecc;strokeColor=#b85450;gradientColor=#ea6b66;" vertex="1" parent="1">
          <mxGeometry x="800" y="1560" width="40" height="40" as="geometry" />
        </mxCell>
        <mxCell id="NoHZ_IP1no9aS0AMYuWi-274" value="3" style="ellipse;whiteSpace=wrap;html=1;aspect=fixed;fillColor=#f5f5f5;strokeColor=#666666;gradientColor=#b3b3b3;" vertex="1" parent="1">
          <mxGeometry x="760" y="1640" width="40" height="40" as="geometry" />
        </mxCell>
        <mxCell id="NoHZ_IP1no9aS0AMYuWi-275" style="edgeStyle=none;rounded=0;orthogonalLoop=1;jettySize=auto;html=1;exitX=0.5;exitY=1;exitDx=0;exitDy=0;entryX=0.5;entryY=0;entryDx=0;entryDy=0;strokeColor=#A8201A;" edge="1" parent="1" source="NoHZ_IP1no9aS0AMYuWi-277" target="NoHZ_IP1no9aS0AMYuWi-258">
          <mxGeometry relative="1" as="geometry" />
        </mxCell>
        <mxCell id="NoHZ_IP1no9aS0AMYuWi-276" style="edgeStyle=none;rounded=0;orthogonalLoop=1;jettySize=auto;html=1;exitX=0.5;exitY=1;exitDx=0;exitDy=0;entryX=0.5;entryY=0;entryDx=0;entryDy=0;strokeColor=#A8201A;" edge="1" parent="1" source="NoHZ_IP1no9aS0AMYuWi-277" target="NoHZ_IP1no9aS0AMYuWi-278">
          <mxGeometry relative="1" as="geometry" />
        </mxCell>
        <mxCell id="NoHZ_IP1no9aS0AMYuWi-277" value="8" style="ellipse;whiteSpace=wrap;html=1;aspect=fixed;fillColor=#f5f5f5;strokeColor=#666666;gradientColor=#b3b3b3;" vertex="1" parent="1">
          <mxGeometry x="840" y="1640" width="40" height="40" as="geometry" />
        </mxCell>
        <mxCell id="NoHZ_IP1no9aS0AMYuWi-278" value="9" style="ellipse;whiteSpace=wrap;html=1;aspect=fixed;fillColor=#f8cecc;strokeColor=#b85450;gradientColor=#ea6b66;" vertex="1" parent="1">
          <mxGeometry x="880" y="1720" width="40" height="40" as="geometry" />
        </mxCell>
        <mxCell id="NoHZ_IP1no9aS0AMYuWi-279" value="14" style="ellipse;whiteSpace=wrap;html=1;aspect=fixed;fillColor=#f8cecc;strokeColor=#b85450;gradientColor=#ea6b66;" vertex="1" parent="1">
          <mxGeometry x="1040" y="1720" width="40" height="40" as="geometry" />
        </mxCell>
        <mxCell id="NoHZ_IP1no9aS0AMYuWi-280" style="edgeStyle=none;rounded=0;orthogonalLoop=1;jettySize=auto;html=1;exitX=0.5;exitY=1;exitDx=0;exitDy=0;entryX=0.5;entryY=0;entryDx=0;entryDy=0;gradientColor=#ea6b66;fillColor=#f8cecc;strokeColor=#b85450;" edge="1" parent="1" source="NoHZ_IP1no9aS0AMYuWi-282" target="NoHZ_IP1no9aS0AMYuWi-267">
          <mxGeometry relative="1" as="geometry" />
        </mxCell>
        <mxCell id="NoHZ_IP1no9aS0AMYuWi-281" style="edgeStyle=none;rounded=0;orthogonalLoop=1;jettySize=auto;html=1;exitX=0.5;exitY=1;exitDx=0;exitDy=0;entryX=0.5;entryY=0;entryDx=0;entryDy=0;gradientColor=#ea6b66;fillColor=#f8cecc;strokeColor=#b85450;" edge="1" parent="1" source="NoHZ_IP1no9aS0AMYuWi-282" target="NoHZ_IP1no9aS0AMYuWi-265">
          <mxGeometry relative="1" as="geometry" />
        </mxCell>
        <mxCell id="NoHZ_IP1no9aS0AMYuWi-282" value="15" style="ellipse;whiteSpace=wrap;html=1;aspect=fixed;fillColor=#f8cecc;strokeColor=#b85450;gradientColor=#ea6b66;" vertex="1" parent="1">
          <mxGeometry x="1040" y="1560" width="40" height="40" as="geometry" />
        </mxCell>
        <mxCell id="NoHZ_IP1no9aS0AMYuWi-283" value="5" style="ellipse;whiteSpace=wrap;html=1;aspect=fixed;fillColor=#f8cecc;strokeColor=#b85450;gradientColor=#ea6b66;" vertex="1" parent="1">
          <mxGeometry x="800" y="1560" width="40" height="40" as="geometry" />
        </mxCell>
        <mxCell id="NoHZ_IP1no9aS0AMYuWi-284" value="3" style="ellipse;whiteSpace=wrap;html=1;aspect=fixed;fillColor=#f5f5f5;strokeColor=#666666;gradientColor=#b3b3b3;" vertex="1" parent="1">
          <mxGeometry x="760" y="1640" width="40" height="40" as="geometry" />
        </mxCell>
        <mxCell id="NoHZ_IP1no9aS0AMYuWi-285" value="8" style="ellipse;whiteSpace=wrap;html=1;aspect=fixed;fillColor=#f5f5f5;strokeColor=#666666;gradientColor=#b3b3b3;" vertex="1" parent="1">
          <mxGeometry x="840" y="1640" width="40" height="40" as="geometry" />
        </mxCell>
        <mxCell id="NoHZ_IP1no9aS0AMYuWi-286" value="12" style="ellipse;whiteSpace=wrap;html=1;aspect=fixed;fillColor=#f8cecc;strokeColor=#b85450;gradientColor=#ea6b66;" vertex="1" parent="1">
          <mxGeometry x="960" y="1720" width="40" height="40" as="geometry" />
        </mxCell>
        <mxCell id="NoHZ_IP1no9aS0AMYuWi-288" value="7" style="ellipse;whiteSpace=wrap;html=1;aspect=fixed;fillColor=#f8cecc;strokeColor=#b85450;gradientColor=#ea6b66;" vertex="1" parent="1">
          <mxGeometry x="1240" y="1720" width="40" height="40" as="geometry" />
        </mxCell>
        <mxCell id="NoHZ_IP1no9aS0AMYuWi-289" value="3" style="ellipse;whiteSpace=wrap;html=1;aspect=fixed;fillColor=#f5f5f5;strokeColor=#666666;gradientColor=#b3b3b3;" vertex="1" parent="1">
          <mxGeometry x="1200" y="1640" width="40" height="40" as="geometry" />
        </mxCell>
        <mxCell id="NoHZ_IP1no9aS0AMYuWi-290" value="8" style="ellipse;whiteSpace=wrap;html=1;aspect=fixed;fillColor=#f5f5f5;strokeColor=#666666;gradientColor=#b3b3b3;" vertex="1" parent="1">
          <mxGeometry x="1280" y="1640" width="40" height="40" as="geometry" />
        </mxCell>
        <mxCell id="NoHZ_IP1no9aS0AMYuWi-291" style="edgeStyle=none;rounded=1;sketch=0;orthogonalLoop=1;jettySize=auto;html=1;exitX=0.5;exitY=1;exitDx=0;exitDy=0;entryX=0.5;entryY=0;entryDx=0;entryDy=0;fontColor=#143642;strokeColor=#A8201A;fillColor=#FAE5C7;" edge="1" parent="1" source="NoHZ_IP1no9aS0AMYuWi-293" target="NoHZ_IP1no9aS0AMYuWi-289">
          <mxGeometry x="1160" y="1480" as="geometry" />
        </mxCell>
        <mxCell id="NoHZ_IP1no9aS0AMYuWi-292" style="edgeStyle=none;rounded=1;sketch=0;orthogonalLoop=1;jettySize=auto;html=1;exitX=0.5;exitY=1;exitDx=0;exitDy=0;entryX=0.5;entryY=0;entryDx=0;entryDy=0;fontColor=#143642;strokeColor=#A8201A;fillColor=#FAE5C7;" edge="1" parent="1" source="NoHZ_IP1no9aS0AMYuWi-293" target="NoHZ_IP1no9aS0AMYuWi-290">
          <mxGeometry x="1160" y="1480" as="geometry" />
        </mxCell>
        <mxCell id="NoHZ_IP1no9aS0AMYuWi-293" value="5" style="ellipse;whiteSpace=wrap;html=1;aspect=fixed;fillColor=#f8cecc;strokeColor=#b85450;gradientColor=#ea6b66;" vertex="1" parent="1">
          <mxGeometry x="1240" y="1560" width="40" height="40" as="geometry" />
        </mxCell>
        <mxCell id="NoHZ_IP1no9aS0AMYuWi-294" style="rounded=1;sketch=0;orthogonalLoop=1;jettySize=auto;html=1;exitX=0.5;exitY=1;exitDx=0;exitDy=0;entryX=0.5;entryY=0;entryDx=0;entryDy=0;fontColor=#143642;strokeColor=#A8201A;fillColor=#FAE5C7;" edge="1" parent="1" source="NoHZ_IP1no9aS0AMYuWi-303" target="NoHZ_IP1no9aS0AMYuWi-293">
          <mxGeometry x="1280" y="1480" as="geometry">
            <mxPoint x="1460" y="1520" as="sourcePoint" />
          </mxGeometry>
        </mxCell>
        <mxCell id="NoHZ_IP1no9aS0AMYuWi-295" value="16" style="ellipse;whiteSpace=wrap;html=1;aspect=fixed;fillColor=#f5f5f5;strokeColor=#666666;gradientColor=#b3b3b3;" vertex="1" parent="1">
          <mxGeometry x="1520" y="1640" width="40" height="40" as="geometry" />
        </mxCell>
        <mxCell id="NoHZ_IP1no9aS0AMYuWi-296" style="edgeStyle=none;rounded=0;orthogonalLoop=1;jettySize=auto;html=1;exitX=0.5;exitY=1;exitDx=0;exitDy=0;entryX=0.5;entryY=0;entryDx=0;entryDy=0;gradientColor=#ea6b66;fillColor=#f8cecc;strokeColor=#b85450;" edge="1" parent="1" source="NoHZ_IP1no9aS0AMYuWi-298" target="NoHZ_IP1no9aS0AMYuWi-310">
          <mxGeometry relative="1" as="geometry" />
        </mxCell>
        <mxCell id="NoHZ_IP1no9aS0AMYuWi-297" style="rounded=0;orthogonalLoop=1;jettySize=auto;html=1;exitX=0.5;exitY=1;exitDx=0;exitDy=0;entryX=0.5;entryY=0;entryDx=0;entryDy=0;gradientColor=#ea6b66;fillColor=#f8cecc;strokeColor=#b85450;" edge="1" parent="1" source="NoHZ_IP1no9aS0AMYuWi-298" target="NoHZ_IP1no9aS0AMYuWi-317">
          <mxGeometry relative="1" as="geometry" />
        </mxCell>
        <mxCell id="NoHZ_IP1no9aS0AMYuWi-298" value="13" style="ellipse;whiteSpace=wrap;html=1;aspect=fixed;gradientColor=#b3b3b3;fillColor=#f5f5f5;strokeColor=#666666;" vertex="1" parent="1">
          <mxGeometry x="1440" y="1640" width="40" height="40" as="geometry" />
        </mxCell>
        <mxCell id="NoHZ_IP1no9aS0AMYuWi-299" value="5" style="ellipse;whiteSpace=wrap;html=1;aspect=fixed;fillColor=#f8cecc;strokeColor=#b85450;gradientColor=#ea6b66;" vertex="1" parent="1">
          <mxGeometry x="1240" y="1560" width="40" height="40" as="geometry" />
        </mxCell>
        <mxCell id="NoHZ_IP1no9aS0AMYuWi-300" value="3" style="ellipse;whiteSpace=wrap;html=1;aspect=fixed;fillColor=#f5f5f5;strokeColor=#666666;gradientColor=#b3b3b3;" vertex="1" parent="1">
          <mxGeometry x="1200" y="1640" width="40" height="40" as="geometry" />
        </mxCell>
        <mxCell id="NoHZ_IP1no9aS0AMYuWi-301" value="8" style="ellipse;whiteSpace=wrap;html=1;aspect=fixed;fillColor=#f5f5f5;strokeColor=#666666;gradientColor=#b3b3b3;" vertex="1" parent="1">
          <mxGeometry x="1280" y="1640" width="40" height="40" as="geometry" />
        </mxCell>
        <mxCell id="NoHZ_IP1no9aS0AMYuWi-302" style="edgeStyle=none;rounded=0;orthogonalLoop=1;jettySize=auto;html=1;exitX=0.5;exitY=1;exitDx=0;exitDy=0;entryX=0.5;entryY=0;entryDx=0;entryDy=0;gradientColor=#ea6b66;fillColor=#f8cecc;strokeColor=#b85450;" edge="1" parent="1" source="NoHZ_IP1no9aS0AMYuWi-303" target="NoHZ_IP1no9aS0AMYuWi-313">
          <mxGeometry relative="1" as="geometry" />
        </mxCell>
        <mxCell id="NoHZ_IP1no9aS0AMYuWi-303" value="11" style="ellipse;whiteSpace=wrap;html=1;aspect=fixed;fillColor=#f5f5f5;strokeColor=#666666;gradientColor=#b3b3b3;" vertex="1" parent="1">
          <mxGeometry x="1360" y="1480" width="40" height="40" as="geometry" />
        </mxCell>
        <mxCell id="NoHZ_IP1no9aS0AMYuWi-304" value="5" style="ellipse;whiteSpace=wrap;html=1;aspect=fixed;fillColor=#f8cecc;strokeColor=#b85450;gradientColor=#ea6b66;" vertex="1" parent="1">
          <mxGeometry x="1240" y="1560" width="40" height="40" as="geometry" />
        </mxCell>
        <mxCell id="NoHZ_IP1no9aS0AMYuWi-305" value="3" style="ellipse;whiteSpace=wrap;html=1;aspect=fixed;fillColor=#f5f5f5;strokeColor=#666666;gradientColor=#b3b3b3;" vertex="1" parent="1">
          <mxGeometry x="1200" y="1640" width="40" height="40" as="geometry" />
        </mxCell>
        <mxCell id="NoHZ_IP1no9aS0AMYuWi-306" style="edgeStyle=none;rounded=0;orthogonalLoop=1;jettySize=auto;html=1;exitX=0.5;exitY=1;exitDx=0;exitDy=0;entryX=0.5;entryY=0;entryDx=0;entryDy=0;strokeColor=#A8201A;" edge="1" parent="1" source="NoHZ_IP1no9aS0AMYuWi-308" target="NoHZ_IP1no9aS0AMYuWi-288">
          <mxGeometry relative="1" as="geometry" />
        </mxCell>
        <mxCell id="NoHZ_IP1no9aS0AMYuWi-307" style="edgeStyle=none;rounded=0;orthogonalLoop=1;jettySize=auto;html=1;exitX=0.5;exitY=1;exitDx=0;exitDy=0;entryX=0.5;entryY=0;entryDx=0;entryDy=0;strokeColor=#A8201A;" edge="1" parent="1" source="NoHZ_IP1no9aS0AMYuWi-308" target="NoHZ_IP1no9aS0AMYuWi-309">
          <mxGeometry relative="1" as="geometry" />
        </mxCell>
        <mxCell id="NoHZ_IP1no9aS0AMYuWi-308" value="8" style="ellipse;whiteSpace=wrap;html=1;aspect=fixed;fillColor=#f5f5f5;strokeColor=#666666;gradientColor=#b3b3b3;" vertex="1" parent="1">
          <mxGeometry x="1280" y="1640" width="40" height="40" as="geometry" />
        </mxCell>
        <mxCell id="NoHZ_IP1no9aS0AMYuWi-309" value="9" style="ellipse;whiteSpace=wrap;html=1;aspect=fixed;fillColor=#f8cecc;strokeColor=#b85450;gradientColor=#ea6b66;" vertex="1" parent="1">
          <mxGeometry x="1320" y="1720" width="40" height="40" as="geometry" />
        </mxCell>
        <mxCell id="NoHZ_IP1no9aS0AMYuWi-310" value="14" style="ellipse;whiteSpace=wrap;html=1;aspect=fixed;fillColor=#f8cecc;strokeColor=#b85450;gradientColor=#ea6b66;" vertex="1" parent="1">
          <mxGeometry x="1480" y="1720" width="40" height="40" as="geometry" />
        </mxCell>
        <mxCell id="NoHZ_IP1no9aS0AMYuWi-311" style="edgeStyle=none;rounded=0;orthogonalLoop=1;jettySize=auto;html=1;exitX=0.5;exitY=1;exitDx=0;exitDy=0;entryX=0.5;entryY=0;entryDx=0;entryDy=0;gradientColor=#ea6b66;fillColor=#f8cecc;strokeColor=#b85450;" edge="1" parent="1" source="NoHZ_IP1no9aS0AMYuWi-313" target="NoHZ_IP1no9aS0AMYuWi-298">
          <mxGeometry relative="1" as="geometry" />
        </mxCell>
        <mxCell id="NoHZ_IP1no9aS0AMYuWi-312" style="edgeStyle=none;rounded=0;orthogonalLoop=1;jettySize=auto;html=1;exitX=0.5;exitY=1;exitDx=0;exitDy=0;entryX=0.5;entryY=0;entryDx=0;entryDy=0;gradientColor=#ea6b66;fillColor=#f8cecc;strokeColor=#b85450;" edge="1" parent="1" source="NoHZ_IP1no9aS0AMYuWi-313" target="NoHZ_IP1no9aS0AMYuWi-295">
          <mxGeometry relative="1" as="geometry" />
        </mxCell>
        <mxCell id="NoHZ_IP1no9aS0AMYuWi-313" value="15" style="ellipse;whiteSpace=wrap;html=1;aspect=fixed;fillColor=#f8cecc;strokeColor=#b85450;gradientColor=#ea6b66;" vertex="1" parent="1">
          <mxGeometry x="1480" y="1560" width="40" height="40" as="geometry" />
        </mxCell>
        <mxCell id="NoHZ_IP1no9aS0AMYuWi-314" value="5" style="ellipse;whiteSpace=wrap;html=1;aspect=fixed;fillColor=#f8cecc;strokeColor=#b85450;gradientColor=#ea6b66;" vertex="1" parent="1">
          <mxGeometry x="1240" y="1560" width="40" height="40" as="geometry" />
        </mxCell>
        <mxCell id="NoHZ_IP1no9aS0AMYuWi-315" value="3" style="ellipse;whiteSpace=wrap;html=1;aspect=fixed;fillColor=#f5f5f5;strokeColor=#666666;gradientColor=#b3b3b3;" vertex="1" parent="1">
          <mxGeometry x="1200" y="1640" width="40" height="40" as="geometry" />
        </mxCell>
        <mxCell id="NoHZ_IP1no9aS0AMYuWi-316" value="8" style="ellipse;whiteSpace=wrap;html=1;aspect=fixed;fillColor=#f5f5f5;strokeColor=#666666;gradientColor=#b3b3b3;" vertex="1" parent="1">
          <mxGeometry x="1280" y="1640" width="40" height="40" as="geometry" />
        </mxCell>
        <mxCell id="NoHZ_IP1no9aS0AMYuWi-317" value="12" style="ellipse;whiteSpace=wrap;html=1;aspect=fixed;fillColor=#f8cecc;strokeColor=#b85450;gradientColor=#ea6b66;" vertex="1" parent="1">
          <mxGeometry x="1400" y="1720" width="40" height="40" as="geometry" />
        </mxCell>
        <mxCell id="NoHZ_IP1no9aS0AMYuWi-318" value="&lt;font color=&quot;#143642&quot;&gt;&lt;b&gt;找到后继元素12，记为S&lt;/b&gt;&lt;/font&gt;" style="shape=callout;whiteSpace=wrap;html=1;perimeter=calloutPerimeter;rounded=1;position2=0.86;" vertex="1" parent="1">
          <mxGeometry x="1327.5" y="1650" width="105" height="70" as="geometry" />
        </mxCell>
        <mxCell id="NoHZ_IP1no9aS0AMYuWi-319" value="7" style="ellipse;whiteSpace=wrap;html=1;aspect=fixed;fillColor=#f8cecc;strokeColor=#b85450;gradientColor=#ea6b66;" vertex="1" parent="1">
          <mxGeometry x="1640" y="1720" width="40" height="40" as="geometry" />
        </mxCell>
        <mxCell id="NoHZ_IP1no9aS0AMYuWi-320" value="3" style="ellipse;whiteSpace=wrap;html=1;aspect=fixed;fillColor=#f5f5f5;strokeColor=#666666;gradientColor=#b3b3b3;" vertex="1" parent="1">
          <mxGeometry x="1600" y="1640" width="40" height="40" as="geometry" />
        </mxCell>
        <mxCell id="NoHZ_IP1no9aS0AMYuWi-321" value="8" style="ellipse;whiteSpace=wrap;html=1;aspect=fixed;fillColor=#f5f5f5;strokeColor=#666666;gradientColor=#b3b3b3;" vertex="1" parent="1">
          <mxGeometry x="1680" y="1640" width="40" height="40" as="geometry" />
        </mxCell>
        <mxCell id="NoHZ_IP1no9aS0AMYuWi-322" style="edgeStyle=none;rounded=1;sketch=0;orthogonalLoop=1;jettySize=auto;html=1;exitX=0.5;exitY=1;exitDx=0;exitDy=0;entryX=0.5;entryY=0;entryDx=0;entryDy=0;fontColor=#143642;strokeColor=#A8201A;fillColor=#FAE5C7;" edge="1" parent="1" source="NoHZ_IP1no9aS0AMYuWi-324" target="NoHZ_IP1no9aS0AMYuWi-320">
          <mxGeometry x="1560" y="1480" as="geometry" />
        </mxCell>
        <mxCell id="NoHZ_IP1no9aS0AMYuWi-323" style="edgeStyle=none;rounded=1;sketch=0;orthogonalLoop=1;jettySize=auto;html=1;exitX=0.5;exitY=1;exitDx=0;exitDy=0;entryX=0.5;entryY=0;entryDx=0;entryDy=0;fontColor=#143642;strokeColor=#A8201A;fillColor=#FAE5C7;" edge="1" parent="1" source="NoHZ_IP1no9aS0AMYuWi-324" target="NoHZ_IP1no9aS0AMYuWi-321">
          <mxGeometry x="1560" y="1480" as="geometry" />
        </mxCell>
        <mxCell id="NoHZ_IP1no9aS0AMYuWi-324" value="5" style="ellipse;whiteSpace=wrap;html=1;aspect=fixed;fillColor=#f8cecc;strokeColor=#b85450;gradientColor=#ea6b66;" vertex="1" parent="1">
          <mxGeometry x="1640" y="1560" width="40" height="40" as="geometry" />
        </mxCell>
        <mxCell id="NoHZ_IP1no9aS0AMYuWi-325" style="rounded=1;sketch=0;orthogonalLoop=1;jettySize=auto;html=1;exitX=0.5;exitY=1;exitDx=0;exitDy=0;entryX=0.5;entryY=0;entryDx=0;entryDy=0;fontColor=#143642;strokeColor=#A8201A;fillColor=#FAE5C7;" edge="1" parent="1" source="NoHZ_IP1no9aS0AMYuWi-334" target="NoHZ_IP1no9aS0AMYuWi-324">
          <mxGeometry x="1680" y="1480" as="geometry">
            <mxPoint x="1860" y="1520" as="sourcePoint" />
          </mxGeometry>
        </mxCell>
        <mxCell id="NoHZ_IP1no9aS0AMYuWi-326" value="16" style="ellipse;whiteSpace=wrap;html=1;aspect=fixed;fillColor=#f5f5f5;strokeColor=#666666;gradientColor=#b3b3b3;" vertex="1" parent="1">
          <mxGeometry x="1920" y="1640" width="40" height="40" as="geometry" />
        </mxCell>
        <mxCell id="NoHZ_IP1no9aS0AMYuWi-327" style="edgeStyle=none;rounded=0;orthogonalLoop=1;jettySize=auto;html=1;exitX=0.5;exitY=1;exitDx=0;exitDy=0;entryX=0.5;entryY=0;entryDx=0;entryDy=0;gradientColor=#ea6b66;fillColor=#f8cecc;strokeColor=#b85450;" edge="1" parent="1" source="NoHZ_IP1no9aS0AMYuWi-329" target="NoHZ_IP1no9aS0AMYuWi-341">
          <mxGeometry relative="1" as="geometry" />
        </mxCell>
        <mxCell id="NoHZ_IP1no9aS0AMYuWi-328" style="rounded=0;orthogonalLoop=1;jettySize=auto;html=1;exitX=0.5;exitY=1;exitDx=0;exitDy=0;entryX=0.5;entryY=0;entryDx=0;entryDy=0;gradientColor=#ea6b66;fillColor=#f8cecc;strokeColor=#b85450;" edge="1" parent="1" source="NoHZ_IP1no9aS0AMYuWi-329" target="NoHZ_IP1no9aS0AMYuWi-348">
          <mxGeometry relative="1" as="geometry" />
        </mxCell>
        <mxCell id="NoHZ_IP1no9aS0AMYuWi-329" value="13" style="ellipse;whiteSpace=wrap;html=1;aspect=fixed;gradientColor=#b3b3b3;fillColor=#f5f5f5;strokeColor=#666666;" vertex="1" parent="1">
          <mxGeometry x="1840" y="1640" width="40" height="40" as="geometry" />
        </mxCell>
        <mxCell id="NoHZ_IP1no9aS0AMYuWi-330" value="5" style="ellipse;whiteSpace=wrap;html=1;aspect=fixed;fillColor=#f8cecc;strokeColor=#b85450;gradientColor=#ea6b66;" vertex="1" parent="1">
          <mxGeometry x="1640" y="1560" width="40" height="40" as="geometry" />
        </mxCell>
        <mxCell id="NoHZ_IP1no9aS0AMYuWi-331" value="3" style="ellipse;whiteSpace=wrap;html=1;aspect=fixed;fillColor=#f5f5f5;strokeColor=#666666;gradientColor=#b3b3b3;" vertex="1" parent="1">
          <mxGeometry x="1600" y="1640" width="40" height="40" as="geometry" />
        </mxCell>
        <mxCell id="NoHZ_IP1no9aS0AMYuWi-332" value="8" style="ellipse;whiteSpace=wrap;html=1;aspect=fixed;fillColor=#f5f5f5;strokeColor=#666666;gradientColor=#b3b3b3;" vertex="1" parent="1">
          <mxGeometry x="1680" y="1640" width="40" height="40" as="geometry" />
        </mxCell>
        <mxCell id="NoHZ_IP1no9aS0AMYuWi-333" style="edgeStyle=none;rounded=0;orthogonalLoop=1;jettySize=auto;html=1;exitX=0.5;exitY=1;exitDx=0;exitDy=0;entryX=0.5;entryY=0;entryDx=0;entryDy=0;gradientColor=#ea6b66;fillColor=#f8cecc;strokeColor=#b85450;" edge="1" parent="1" source="NoHZ_IP1no9aS0AMYuWi-334" target="NoHZ_IP1no9aS0AMYuWi-344">
          <mxGeometry relative="1" as="geometry" />
        </mxCell>
        <mxCell id="NoHZ_IP1no9aS0AMYuWi-334" value="12" style="ellipse;whiteSpace=wrap;html=1;aspect=fixed;fillColor=#f5f5f5;strokeColor=#666666;gradientColor=#b3b3b3;" vertex="1" parent="1">
          <mxGeometry x="1760" y="1480" width="40" height="40" as="geometry" />
        </mxCell>
        <mxCell id="NoHZ_IP1no9aS0AMYuWi-335" value="5" style="ellipse;whiteSpace=wrap;html=1;aspect=fixed;fillColor=#f8cecc;strokeColor=#b85450;gradientColor=#ea6b66;" vertex="1" parent="1">
          <mxGeometry x="1640" y="1560" width="40" height="40" as="geometry" />
        </mxCell>
        <mxCell id="NoHZ_IP1no9aS0AMYuWi-336" value="3" style="ellipse;whiteSpace=wrap;html=1;aspect=fixed;fillColor=#f5f5f5;strokeColor=#666666;gradientColor=#b3b3b3;" vertex="1" parent="1">
          <mxGeometry x="1600" y="1640" width="40" height="40" as="geometry" />
        </mxCell>
        <mxCell id="NoHZ_IP1no9aS0AMYuWi-337" style="edgeStyle=none;rounded=0;orthogonalLoop=1;jettySize=auto;html=1;exitX=0.5;exitY=1;exitDx=0;exitDy=0;entryX=0.5;entryY=0;entryDx=0;entryDy=0;strokeColor=#A8201A;" edge="1" parent="1" source="NoHZ_IP1no9aS0AMYuWi-339" target="NoHZ_IP1no9aS0AMYuWi-319">
          <mxGeometry relative="1" as="geometry" />
        </mxCell>
        <mxCell id="NoHZ_IP1no9aS0AMYuWi-338" style="edgeStyle=none;rounded=0;orthogonalLoop=1;jettySize=auto;html=1;exitX=0.5;exitY=1;exitDx=0;exitDy=0;entryX=0.5;entryY=0;entryDx=0;entryDy=0;strokeColor=#A8201A;" edge="1" parent="1" source="NoHZ_IP1no9aS0AMYuWi-339" target="NoHZ_IP1no9aS0AMYuWi-340">
          <mxGeometry relative="1" as="geometry" />
        </mxCell>
        <mxCell id="NoHZ_IP1no9aS0AMYuWi-339" value="8" style="ellipse;whiteSpace=wrap;html=1;aspect=fixed;fillColor=#f5f5f5;strokeColor=#666666;gradientColor=#b3b3b3;" vertex="1" parent="1">
          <mxGeometry x="1680" y="1640" width="40" height="40" as="geometry" />
        </mxCell>
        <mxCell id="NoHZ_IP1no9aS0AMYuWi-340" value="9" style="ellipse;whiteSpace=wrap;html=1;aspect=fixed;fillColor=#f8cecc;strokeColor=#b85450;gradientColor=#ea6b66;" vertex="1" parent="1">
          <mxGeometry x="1720" y="1720" width="40" height="40" as="geometry" />
        </mxCell>
        <mxCell id="NoHZ_IP1no9aS0AMYuWi-341" value="14" style="ellipse;whiteSpace=wrap;html=1;aspect=fixed;fillColor=#f8cecc;strokeColor=#b85450;gradientColor=#ea6b66;" vertex="1" parent="1">
          <mxGeometry x="1880" y="1720" width="40" height="40" as="geometry" />
        </mxCell>
        <mxCell id="NoHZ_IP1no9aS0AMYuWi-342" style="edgeStyle=none;rounded=0;orthogonalLoop=1;jettySize=auto;html=1;exitX=0.5;exitY=1;exitDx=0;exitDy=0;entryX=0.5;entryY=0;entryDx=0;entryDy=0;gradientColor=#ea6b66;fillColor=#f8cecc;strokeColor=#b85450;" edge="1" parent="1" source="NoHZ_IP1no9aS0AMYuWi-344" target="NoHZ_IP1no9aS0AMYuWi-329">
          <mxGeometry relative="1" as="geometry" />
        </mxCell>
        <mxCell id="NoHZ_IP1no9aS0AMYuWi-343" style="edgeStyle=none;rounded=0;orthogonalLoop=1;jettySize=auto;html=1;exitX=0.5;exitY=1;exitDx=0;exitDy=0;entryX=0.5;entryY=0;entryDx=0;entryDy=0;gradientColor=#ea6b66;fillColor=#f8cecc;strokeColor=#b85450;" edge="1" parent="1" source="NoHZ_IP1no9aS0AMYuWi-344" target="NoHZ_IP1no9aS0AMYuWi-326">
          <mxGeometry relative="1" as="geometry" />
        </mxCell>
        <mxCell id="NoHZ_IP1no9aS0AMYuWi-344" value="15" style="ellipse;whiteSpace=wrap;html=1;aspect=fixed;fillColor=#f8cecc;strokeColor=#b85450;gradientColor=#ea6b66;" vertex="1" parent="1">
          <mxGeometry x="1880" y="1560" width="40" height="40" as="geometry" />
        </mxCell>
        <mxCell id="NoHZ_IP1no9aS0AMYuWi-345" value="5" style="ellipse;whiteSpace=wrap;html=1;aspect=fixed;fillColor=#f8cecc;strokeColor=#b85450;gradientColor=#ea6b66;" vertex="1" parent="1">
          <mxGeometry x="1640" y="1560" width="40" height="40" as="geometry" />
        </mxCell>
        <mxCell id="NoHZ_IP1no9aS0AMYuWi-346" value="3" style="ellipse;whiteSpace=wrap;html=1;aspect=fixed;fillColor=#f5f5f5;strokeColor=#666666;gradientColor=#b3b3b3;" vertex="1" parent="1">
          <mxGeometry x="1600" y="1640" width="40" height="40" as="geometry" />
        </mxCell>
        <mxCell id="NoHZ_IP1no9aS0AMYuWi-347" value="8" style="ellipse;whiteSpace=wrap;html=1;aspect=fixed;fillColor=#f5f5f5;strokeColor=#666666;gradientColor=#b3b3b3;" vertex="1" parent="1">
          <mxGeometry x="1680" y="1640" width="40" height="40" as="geometry" />
        </mxCell>
        <mxCell id="NoHZ_IP1no9aS0AMYuWi-348" value="12" style="ellipse;whiteSpace=wrap;html=1;aspect=fixed;fillColor=#f8cecc;strokeColor=#b85450;gradientColor=#ea6b66;" vertex="1" parent="1">
          <mxGeometry x="1800" y="1720" width="40" height="40" as="geometry" />
        </mxCell>
        <mxCell id="NoHZ_IP1no9aS0AMYuWi-351" value="7" style="ellipse;whiteSpace=wrap;html=1;aspect=fixed;fillColor=#f8cecc;strokeColor=#b85450;gradientColor=#ea6b66;" vertex="1" parent="1">
          <mxGeometry x="1640" y="2120" width="40" height="40" as="geometry" />
        </mxCell>
        <mxCell id="NoHZ_IP1no9aS0AMYuWi-352" value="3" style="ellipse;whiteSpace=wrap;html=1;aspect=fixed;fillColor=#f5f5f5;strokeColor=#666666;gradientColor=#b3b3b3;" vertex="1" parent="1">
          <mxGeometry x="1600" y="2040" width="40" height="40" as="geometry" />
        </mxCell>
        <mxCell id="NoHZ_IP1no9aS0AMYuWi-353" value="8" style="ellipse;whiteSpace=wrap;html=1;aspect=fixed;fillColor=#f5f5f5;strokeColor=#666666;gradientColor=#b3b3b3;" vertex="1" parent="1">
          <mxGeometry x="1680" y="2040" width="40" height="40" as="geometry" />
        </mxCell>
        <mxCell id="NoHZ_IP1no9aS0AMYuWi-354" style="edgeStyle=none;rounded=1;sketch=0;orthogonalLoop=1;jettySize=auto;html=1;exitX=0.5;exitY=1;exitDx=0;exitDy=0;entryX=0.5;entryY=0;entryDx=0;entryDy=0;fontColor=#143642;strokeColor=#A8201A;fillColor=#FAE5C7;" edge="1" parent="1" source="NoHZ_IP1no9aS0AMYuWi-356" target="NoHZ_IP1no9aS0AMYuWi-352">
          <mxGeometry x="1560" y="1880" as="geometry" />
        </mxCell>
        <mxCell id="NoHZ_IP1no9aS0AMYuWi-355" style="edgeStyle=none;rounded=1;sketch=0;orthogonalLoop=1;jettySize=auto;html=1;exitX=0.5;exitY=1;exitDx=0;exitDy=0;entryX=0.5;entryY=0;entryDx=0;entryDy=0;fontColor=#143642;strokeColor=#A8201A;fillColor=#FAE5C7;" edge="1" parent="1" source="NoHZ_IP1no9aS0AMYuWi-356" target="NoHZ_IP1no9aS0AMYuWi-353">
          <mxGeometry x="1560" y="1880" as="geometry" />
        </mxCell>
        <mxCell id="NoHZ_IP1no9aS0AMYuWi-356" value="5" style="ellipse;whiteSpace=wrap;html=1;aspect=fixed;fillColor=#f8cecc;strokeColor=#b85450;gradientColor=#ea6b66;" vertex="1" parent="1">
          <mxGeometry x="1640" y="1960" width="40" height="40" as="geometry" />
        </mxCell>
        <mxCell id="NoHZ_IP1no9aS0AMYuWi-357" style="rounded=1;sketch=0;orthogonalLoop=1;jettySize=auto;html=1;exitX=0.5;exitY=1;exitDx=0;exitDy=0;entryX=0.5;entryY=0;entryDx=0;entryDy=0;fontColor=#143642;strokeColor=#A8201A;fillColor=#FAE5C7;" edge="1" parent="1" source="NoHZ_IP1no9aS0AMYuWi-366" target="NoHZ_IP1no9aS0AMYuWi-356">
          <mxGeometry x="1680" y="1880" as="geometry">
            <mxPoint x="1860" y="1920" as="sourcePoint" />
          </mxGeometry>
        </mxCell>
        <mxCell id="NoHZ_IP1no9aS0AMYuWi-358" value="16" style="ellipse;whiteSpace=wrap;html=1;aspect=fixed;fillColor=#f5f5f5;strokeColor=#666666;gradientColor=#b3b3b3;" vertex="1" parent="1">
          <mxGeometry x="1920" y="2040" width="40" height="40" as="geometry" />
        </mxCell>
        <mxCell id="NoHZ_IP1no9aS0AMYuWi-359" style="edgeStyle=none;rounded=0;orthogonalLoop=1;jettySize=auto;html=1;exitX=0.5;exitY=1;exitDx=0;exitDy=0;entryX=0.5;entryY=0;entryDx=0;entryDy=0;gradientColor=#ea6b66;fillColor=#f8cecc;strokeColor=#b85450;" edge="1" parent="1" source="NoHZ_IP1no9aS0AMYuWi-361" target="NoHZ_IP1no9aS0AMYuWi-373">
          <mxGeometry relative="1" as="geometry" />
        </mxCell>
        <mxCell id="NoHZ_IP1no9aS0AMYuWi-361" value="13" style="ellipse;whiteSpace=wrap;html=1;aspect=fixed;gradientColor=#b3b3b3;fillColor=#f5f5f5;strokeColor=#666666;" vertex="1" parent="1">
          <mxGeometry x="1840" y="2040" width="40" height="40" as="geometry" />
        </mxCell>
        <mxCell id="NoHZ_IP1no9aS0AMYuWi-362" value="5" style="ellipse;whiteSpace=wrap;html=1;aspect=fixed;fillColor=#f8cecc;strokeColor=#b85450;gradientColor=#ea6b66;" vertex="1" parent="1">
          <mxGeometry x="1640" y="1960" width="40" height="40" as="geometry" />
        </mxCell>
        <mxCell id="NoHZ_IP1no9aS0AMYuWi-363" value="3" style="ellipse;whiteSpace=wrap;html=1;aspect=fixed;fillColor=#f5f5f5;strokeColor=#666666;gradientColor=#b3b3b3;" vertex="1" parent="1">
          <mxGeometry x="1600" y="2040" width="40" height="40" as="geometry" />
        </mxCell>
        <mxCell id="NoHZ_IP1no9aS0AMYuWi-364" value="8" style="ellipse;whiteSpace=wrap;html=1;aspect=fixed;fillColor=#f5f5f5;strokeColor=#666666;gradientColor=#b3b3b3;" vertex="1" parent="1">
          <mxGeometry x="1680" y="2040" width="40" height="40" as="geometry" />
        </mxCell>
        <mxCell id="NoHZ_IP1no9aS0AMYuWi-365" style="edgeStyle=none;rounded=0;orthogonalLoop=1;jettySize=auto;html=1;exitX=0.5;exitY=1;exitDx=0;exitDy=0;entryX=0.5;entryY=0;entryDx=0;entryDy=0;gradientColor=#ea6b66;fillColor=#f8cecc;strokeColor=#b85450;" edge="1" parent="1" source="NoHZ_IP1no9aS0AMYuWi-366" target="NoHZ_IP1no9aS0AMYuWi-376">
          <mxGeometry relative="1" as="geometry" />
        </mxCell>
        <mxCell id="NoHZ_IP1no9aS0AMYuWi-366" value="12" style="ellipse;whiteSpace=wrap;html=1;aspect=fixed;fillColor=#f5f5f5;strokeColor=#666666;gradientColor=#b3b3b3;" vertex="1" parent="1">
          <mxGeometry x="1760" y="1880" width="40" height="40" as="geometry" />
        </mxCell>
        <mxCell id="NoHZ_IP1no9aS0AMYuWi-367" value="5" style="ellipse;whiteSpace=wrap;html=1;aspect=fixed;fillColor=#f8cecc;strokeColor=#b85450;gradientColor=#ea6b66;" vertex="1" parent="1">
          <mxGeometry x="1640" y="1960" width="40" height="40" as="geometry" />
        </mxCell>
        <mxCell id="NoHZ_IP1no9aS0AMYuWi-368" value="3" style="ellipse;whiteSpace=wrap;html=1;aspect=fixed;fillColor=#f5f5f5;strokeColor=#666666;gradientColor=#b3b3b3;" vertex="1" parent="1">
          <mxGeometry x="1600" y="2040" width="40" height="40" as="geometry" />
        </mxCell>
        <mxCell id="NoHZ_IP1no9aS0AMYuWi-369" style="edgeStyle=none;rounded=0;orthogonalLoop=1;jettySize=auto;html=1;exitX=0.5;exitY=1;exitDx=0;exitDy=0;entryX=0.5;entryY=0;entryDx=0;entryDy=0;strokeColor=#A8201A;" edge="1" parent="1" source="NoHZ_IP1no9aS0AMYuWi-371" target="NoHZ_IP1no9aS0AMYuWi-351">
          <mxGeometry relative="1" as="geometry" />
        </mxCell>
        <mxCell id="NoHZ_IP1no9aS0AMYuWi-370" style="edgeStyle=none;rounded=0;orthogonalLoop=1;jettySize=auto;html=1;exitX=0.5;exitY=1;exitDx=0;exitDy=0;entryX=0.5;entryY=0;entryDx=0;entryDy=0;strokeColor=#A8201A;" edge="1" parent="1" source="NoHZ_IP1no9aS0AMYuWi-371" target="NoHZ_IP1no9aS0AMYuWi-372">
          <mxGeometry relative="1" as="geometry" />
        </mxCell>
        <mxCell id="NoHZ_IP1no9aS0AMYuWi-371" value="8" style="ellipse;whiteSpace=wrap;html=1;aspect=fixed;fillColor=#f5f5f5;strokeColor=#666666;gradientColor=#b3b3b3;" vertex="1" parent="1">
          <mxGeometry x="1680" y="2040" width="40" height="40" as="geometry" />
        </mxCell>
        <mxCell id="NoHZ_IP1no9aS0AMYuWi-372" value="9" style="ellipse;whiteSpace=wrap;html=1;aspect=fixed;fillColor=#f8cecc;strokeColor=#b85450;gradientColor=#ea6b66;" vertex="1" parent="1">
          <mxGeometry x="1720" y="2120" width="40" height="40" as="geometry" />
        </mxCell>
        <mxCell id="NoHZ_IP1no9aS0AMYuWi-373" value="14" style="ellipse;whiteSpace=wrap;html=1;aspect=fixed;fillColor=#f8cecc;strokeColor=#b85450;gradientColor=#ea6b66;" vertex="1" parent="1">
          <mxGeometry x="1880" y="2120" width="40" height="40" as="geometry" />
        </mxCell>
        <mxCell id="NoHZ_IP1no9aS0AMYuWi-374" style="edgeStyle=none;rounded=0;orthogonalLoop=1;jettySize=auto;html=1;exitX=0.5;exitY=1;exitDx=0;exitDy=0;entryX=0.5;entryY=0;entryDx=0;entryDy=0;gradientColor=#ea6b66;fillColor=#f8cecc;strokeColor=#b85450;" edge="1" parent="1" source="NoHZ_IP1no9aS0AMYuWi-376" target="NoHZ_IP1no9aS0AMYuWi-361">
          <mxGeometry relative="1" as="geometry" />
        </mxCell>
        <mxCell id="NoHZ_IP1no9aS0AMYuWi-375" style="edgeStyle=none;rounded=0;orthogonalLoop=1;jettySize=auto;html=1;exitX=0.5;exitY=1;exitDx=0;exitDy=0;entryX=0.5;entryY=0;entryDx=0;entryDy=0;gradientColor=#ea6b66;fillColor=#f8cecc;strokeColor=#b85450;" edge="1" parent="1" source="NoHZ_IP1no9aS0AMYuWi-376" target="NoHZ_IP1no9aS0AMYuWi-358">
          <mxGeometry relative="1" as="geometry" />
        </mxCell>
        <mxCell id="NoHZ_IP1no9aS0AMYuWi-376" value="15" style="ellipse;whiteSpace=wrap;html=1;aspect=fixed;fillColor=#f8cecc;strokeColor=#b85450;gradientColor=#ea6b66;" vertex="1" parent="1">
          <mxGeometry x="1880" y="1960" width="40" height="40" as="geometry" />
        </mxCell>
        <mxCell id="NoHZ_IP1no9aS0AMYuWi-377" value="5" style="ellipse;whiteSpace=wrap;html=1;aspect=fixed;fillColor=#f8cecc;strokeColor=#b85450;gradientColor=#ea6b66;" vertex="1" parent="1">
          <mxGeometry x="1640" y="1960" width="40" height="40" as="geometry" />
        </mxCell>
        <mxCell id="NoHZ_IP1no9aS0AMYuWi-378" value="3" style="ellipse;whiteSpace=wrap;html=1;aspect=fixed;fillColor=#f5f5f5;strokeColor=#666666;gradientColor=#b3b3b3;" vertex="1" parent="1">
          <mxGeometry x="1600" y="2040" width="40" height="40" as="geometry" />
        </mxCell>
        <mxCell id="NoHZ_IP1no9aS0AMYuWi-379" value="8" style="ellipse;whiteSpace=wrap;html=1;aspect=fixed;fillColor=#f5f5f5;strokeColor=#666666;gradientColor=#b3b3b3;" vertex="1" parent="1">
          <mxGeometry x="1680" y="2040" width="40" height="40" as="geometry" />
        </mxCell>
        <mxCell id="NoHZ_IP1no9aS0AMYuWi-380" value="12" style="ellipse;whiteSpace=wrap;html=1;aspect=fixed;fillColor=#f8cecc;strokeColor=#b85450;gradientColor=#ea6b66;" vertex="1" parent="1">
          <mxGeometry x="1800" y="2120" width="40" height="40" as="geometry" />
        </mxCell>
        <mxCell id="NoHZ_IP1no9aS0AMYuWi-383" value="7" style="ellipse;whiteSpace=wrap;html=1;aspect=fixed;fillColor=#f8cecc;strokeColor=#b85450;gradientColor=#ea6b66;" vertex="1" parent="1">
          <mxGeometry x="1160" y="2120" width="40" height="40" as="geometry" />
        </mxCell>
        <mxCell id="NoHZ_IP1no9aS0AMYuWi-384" value="3" style="ellipse;whiteSpace=wrap;html=1;aspect=fixed;fillColor=#f5f5f5;strokeColor=#666666;gradientColor=#b3b3b3;" vertex="1" parent="1">
          <mxGeometry x="1120" y="2040" width="40" height="40" as="geometry" />
        </mxCell>
        <mxCell id="NoHZ_IP1no9aS0AMYuWi-385" value="8" style="ellipse;whiteSpace=wrap;html=1;aspect=fixed;fillColor=#f5f5f5;strokeColor=#666666;gradientColor=#b3b3b3;" vertex="1" parent="1">
          <mxGeometry x="1200" y="2040" width="40" height="40" as="geometry" />
        </mxCell>
        <mxCell id="NoHZ_IP1no9aS0AMYuWi-386" style="edgeStyle=none;rounded=1;sketch=0;orthogonalLoop=1;jettySize=auto;html=1;exitX=0.5;exitY=1;exitDx=0;exitDy=0;entryX=0.5;entryY=0;entryDx=0;entryDy=0;fontColor=#143642;strokeColor=#A8201A;fillColor=#FAE5C7;" edge="1" parent="1" target="NoHZ_IP1no9aS0AMYuWi-384">
          <mxGeometry x="1080" y="1880" as="geometry">
            <mxPoint x="1180" y="2000" as="sourcePoint" />
          </mxGeometry>
        </mxCell>
        <mxCell id="NoHZ_IP1no9aS0AMYuWi-387" style="edgeStyle=none;rounded=1;sketch=0;orthogonalLoop=1;jettySize=auto;html=1;exitX=0.5;exitY=1;exitDx=0;exitDy=0;entryX=0.5;entryY=0;entryDx=0;entryDy=0;fontColor=#143642;strokeColor=#A8201A;fillColor=#FAE5C7;" edge="1" parent="1" target="NoHZ_IP1no9aS0AMYuWi-385">
          <mxGeometry x="1080" y="1880" as="geometry">
            <mxPoint x="1180" y="2000" as="sourcePoint" />
          </mxGeometry>
        </mxCell>
        <mxCell id="NoHZ_IP1no9aS0AMYuWi-389" style="rounded=1;sketch=0;orthogonalLoop=1;jettySize=auto;html=1;exitX=0.5;exitY=1;exitDx=0;exitDy=0;entryX=0.5;entryY=0;entryDx=0;entryDy=0;fontColor=#143642;strokeColor=#A8201A;fillColor=#FAE5C7;" edge="1" parent="1" source="NoHZ_IP1no9aS0AMYuWi-397" target="NoHZ_IP1no9aS0AMYuWi-408">
          <mxGeometry x="1160" y="1880" as="geometry">
            <mxPoint x="1340" y="1920" as="sourcePoint" />
            <mxPoint x="1140" y="1960" as="targetPoint" />
          </mxGeometry>
        </mxCell>
        <mxCell id="NoHZ_IP1no9aS0AMYuWi-390" value="16" style="ellipse;whiteSpace=wrap;html=1;aspect=fixed;fillColor=#f5f5f5;strokeColor=#666666;gradientColor=#b3b3b3;" vertex="1" parent="1">
          <mxGeometry x="1360" y="2040" width="40" height="40" as="geometry" />
        </mxCell>
        <mxCell id="NoHZ_IP1no9aS0AMYuWi-391" style="edgeStyle=none;rounded=0;orthogonalLoop=1;jettySize=auto;html=1;exitX=0.5;exitY=1;exitDx=0;exitDy=0;entryX=0.5;entryY=0;entryDx=0;entryDy=0;gradientColor=#ea6b66;fillColor=#f8cecc;strokeColor=#b85450;" edge="1" parent="1" source="NoHZ_IP1no9aS0AMYuWi-392" target="NoHZ_IP1no9aS0AMYuWi-404">
          <mxGeometry relative="1" as="geometry" />
        </mxCell>
        <mxCell id="NoHZ_IP1no9aS0AMYuWi-392" value="13" style="ellipse;whiteSpace=wrap;html=1;aspect=fixed;gradientColor=#b3b3b3;fillColor=#f5f5f5;strokeColor=#666666;" vertex="1" parent="1">
          <mxGeometry x="1280" y="2040" width="40" height="40" as="geometry" />
        </mxCell>
        <mxCell id="NoHZ_IP1no9aS0AMYuWi-394" value="3" style="ellipse;whiteSpace=wrap;html=1;aspect=fixed;fillColor=#f5f5f5;strokeColor=#666666;gradientColor=#b3b3b3;" vertex="1" parent="1">
          <mxGeometry x="1120" y="2040" width="40" height="40" as="geometry" />
        </mxCell>
        <mxCell id="NoHZ_IP1no9aS0AMYuWi-395" value="8" style="ellipse;whiteSpace=wrap;html=1;aspect=fixed;fillColor=#f5f5f5;strokeColor=#666666;gradientColor=#b3b3b3;" vertex="1" parent="1">
          <mxGeometry x="1200" y="2040" width="40" height="40" as="geometry" />
        </mxCell>
        <mxCell id="NoHZ_IP1no9aS0AMYuWi-396" style="edgeStyle=none;rounded=0;orthogonalLoop=1;jettySize=auto;html=1;exitX=0.5;exitY=1;exitDx=0;exitDy=0;entryX=0.5;entryY=0;entryDx=0;entryDy=0;gradientColor=#ea6b66;fillColor=#f8cecc;strokeColor=#b85450;" edge="1" parent="1" source="NoHZ_IP1no9aS0AMYuWi-397" target="NoHZ_IP1no9aS0AMYuWi-407">
          <mxGeometry relative="1" as="geometry" />
        </mxCell>
        <mxCell id="NoHZ_IP1no9aS0AMYuWi-397" value="12" style="ellipse;whiteSpace=wrap;html=1;aspect=fixed;fillColor=#f5f5f5;strokeColor=#666666;gradientColor=#b3b3b3;" vertex="1" parent="1">
          <mxGeometry x="1240" y="1880" width="40" height="40" as="geometry" />
        </mxCell>
        <mxCell id="NoHZ_IP1no9aS0AMYuWi-399" value="3" style="ellipse;whiteSpace=wrap;html=1;aspect=fixed;fillColor=#f5f5f5;strokeColor=#666666;gradientColor=#b3b3b3;" vertex="1" parent="1">
          <mxGeometry x="1120" y="2040" width="40" height="40" as="geometry" />
        </mxCell>
        <mxCell id="NoHZ_IP1no9aS0AMYuWi-400" style="edgeStyle=none;rounded=0;orthogonalLoop=1;jettySize=auto;html=1;exitX=0.5;exitY=1;exitDx=0;exitDy=0;entryX=0.5;entryY=0;entryDx=0;entryDy=0;strokeColor=#A8201A;" edge="1" parent="1" source="NoHZ_IP1no9aS0AMYuWi-402" target="NoHZ_IP1no9aS0AMYuWi-383">
          <mxGeometry relative="1" as="geometry" />
        </mxCell>
        <mxCell id="NoHZ_IP1no9aS0AMYuWi-401" style="edgeStyle=none;rounded=0;orthogonalLoop=1;jettySize=auto;html=1;exitX=0.5;exitY=1;exitDx=0;exitDy=0;entryX=0.5;entryY=0;entryDx=0;entryDy=0;strokeColor=#A8201A;" edge="1" parent="1" source="NoHZ_IP1no9aS0AMYuWi-402" target="NoHZ_IP1no9aS0AMYuWi-403">
          <mxGeometry relative="1" as="geometry" />
        </mxCell>
        <mxCell id="NoHZ_IP1no9aS0AMYuWi-402" value="8" style="ellipse;whiteSpace=wrap;html=1;aspect=fixed;fillColor=#f5f5f5;strokeColor=#666666;gradientColor=#b3b3b3;" vertex="1" parent="1">
          <mxGeometry x="1200" y="2040" width="40" height="40" as="geometry" />
        </mxCell>
        <mxCell id="NoHZ_IP1no9aS0AMYuWi-403" value="9" style="ellipse;whiteSpace=wrap;html=1;aspect=fixed;fillColor=#f8cecc;strokeColor=#b85450;gradientColor=#ea6b66;" vertex="1" parent="1">
          <mxGeometry x="1240" y="2120" width="40" height="40" as="geometry" />
        </mxCell>
        <mxCell id="NoHZ_IP1no9aS0AMYuWi-404" value="14" style="ellipse;whiteSpace=wrap;html=1;aspect=fixed;fillColor=#f8cecc;strokeColor=#b85450;gradientColor=#ea6b66;" vertex="1" parent="1">
          <mxGeometry x="1320" y="2120" width="40" height="40" as="geometry" />
        </mxCell>
        <mxCell id="NoHZ_IP1no9aS0AMYuWi-405" style="edgeStyle=none;rounded=0;orthogonalLoop=1;jettySize=auto;html=1;exitX=0.5;exitY=1;exitDx=0;exitDy=0;entryX=0.5;entryY=0;entryDx=0;entryDy=0;gradientColor=#ea6b66;fillColor=#f8cecc;strokeColor=#b85450;" edge="1" parent="1" source="NoHZ_IP1no9aS0AMYuWi-407" target="NoHZ_IP1no9aS0AMYuWi-392">
          <mxGeometry relative="1" as="geometry" />
        </mxCell>
        <mxCell id="NoHZ_IP1no9aS0AMYuWi-406" style="edgeStyle=none;rounded=0;orthogonalLoop=1;jettySize=auto;html=1;exitX=0.5;exitY=1;exitDx=0;exitDy=0;entryX=0.5;entryY=0;entryDx=0;entryDy=0;gradientColor=#ea6b66;fillColor=#f8cecc;strokeColor=#b85450;" edge="1" parent="1" source="NoHZ_IP1no9aS0AMYuWi-407" target="NoHZ_IP1no9aS0AMYuWi-390">
          <mxGeometry relative="1" as="geometry" />
        </mxCell>
        <mxCell id="NoHZ_IP1no9aS0AMYuWi-407" value="15" style="ellipse;whiteSpace=wrap;html=1;aspect=fixed;fillColor=#f8cecc;strokeColor=#b85450;gradientColor=#ea6b66;" vertex="1" parent="1">
          <mxGeometry x="1320" y="1960" width="40" height="40" as="geometry" />
        </mxCell>
        <mxCell id="NoHZ_IP1no9aS0AMYuWi-408" value="5" style="ellipse;whiteSpace=wrap;html=1;aspect=fixed;fillColor=#f8cecc;strokeColor=#b85450;gradientColor=#ea6b66;" vertex="1" parent="1">
          <mxGeometry x="1160" y="1960" width="40" height="40" as="geometry" />
        </mxCell>
        <mxCell id="NoHZ_IP1no9aS0AMYuWi-409" value="3" style="ellipse;whiteSpace=wrap;html=1;aspect=fixed;fillColor=#f5f5f5;strokeColor=#666666;gradientColor=#b3b3b3;" vertex="1" parent="1">
          <mxGeometry x="1120" y="2040" width="40" height="40" as="geometry" />
        </mxCell>
        <mxCell id="NoHZ_IP1no9aS0AMYuWi-410" value="8" style="ellipse;whiteSpace=wrap;html=1;aspect=fixed;fillColor=#f5f5f5;strokeColor=#666666;gradientColor=#b3b3b3;" vertex="1" parent="1">
          <mxGeometry x="1200" y="2040" width="40" height="40" as="geometry" />
        </mxCell>
      </root>
    </mxGraphModel>
  </diagram>
</mxfile>
